<?xml version="1.0" standalone="no"?>
<!DOCTYPE svg PUBLIC "-//W3C//DTD SVG 20010904//EN"
 "http://www.w3.org/TR/2001/REC-SVG-20010904/DTD/svg10.dtd">
<svg version="1.0" xmlns="http://www.w3.org/2000/svg"
 width="457.000000pt" height="455.000000pt" viewBox="0 0 457.000000 455.000000"
 preserveAspectRatio="xMidYMid meet">

<g transform="translate(0.000000,455.000000) scale(0.100000,-0.100000)"
fill="#000000" stroke="none">
<path d="M1980 4489 c-488 -65 -931 -286 -1285 -643 -134 -135 -250 -276 -243
-296 4 -13 394 -240 411 -240 7 0 23 17 37 37 14 21 77 90 140 154 181 182
381 314 614 404 231 89 418 120 686 112 254 -7 423 -43 640 -135 270 -115 537
-321 703 -543 l28 -37 207 119 c114 66 208 123 210 129 6 18 -131 184 -253
305 -495 496 -1187 728 -1895 634z"/>
<path d="M2040 3744 c-78 -12 -217 -48 -227 -58 -2 -2 42 -7 99 -11 57 -3 130
-11 163 -16 l60 -9 55 55 55 55 -60 -1 c-33 -1 -98 -7 -145 -15z"/>
<path d="M2331 3689 c-29 -33 -52 -61 -50 -63 2 -2 42 -16 89 -31 146 -48 385
-177 477 -259 22 -19 23 -19 43 -1 12 11 51 63 87 117 78 115 83 103 -65 168
-142 63 -223 89 -349 110 -169 29 -169 29 -232 -41z"/>
<path d="M1506 3544 c-102 -63 -191 -132 -256 -198 l-44 -46 49 0 c98 0 119 8
150 57 35 56 105 145 159 201 22 23 38 42 36 42 -3 0 -45 -25 -94 -56z"/>
<path d="M1805 3513 c14 -31 28 -59 30 -62 6 -5 70 29 138 74 l48 32 -32 7
c-17 3 -71 6 -120 6 l-89 0 25 -57z"/>
<path d="M2109 3482 c-36 -27 -100 -68 -142 -92 -42 -24 -77 -49 -77 -54 0 -6
12 -36 26 -66 15 -30 46 -100 69 -155 128 -299 158 -365 168 -365 17 0 200
105 288 166 102 70 225 172 298 248 54 54 54 56 36 76 -30 33 -198 138 -292
182 -106 49 -150 66 -223 83 -30 8 -62 16 -71 20 -9 3 -40 -13 -80 -43z"/>
<path d="M1634 3478 c-56 -59 -114 -130 -114 -139 0 -10 132 26 181 49 l37 17
-25 58 c-14 31 -29 57 -32 57 -4 0 -25 -19 -47 -42z"/>
<path d="M3150 3468 c-13 -8 -12 -9 1 -5 11 4 28 -7 47 -29 17 -19 32 -31 35
-27 2 5 -13 22 -33 40 -27 24 -40 29 -50 21z"/>
<path d="M3120 3436 c0 -8 -6 -19 -13 -23 -21 -12 -51 -63 -38 -63 6 0 11 6
11 13 0 7 9 18 20 24 17 11 19 10 14 -5 -5 -13 -4 -14 4 -3 5 7 14 11 19 8 15
-9 13 34 -3 50 -12 13 -14 12 -14 -1z m20 -26 c0 -5 -4 -10 -10 -10 -5 0 -10
5 -10 10 0 6 5 10 10 10 6 0 10 -4 10 -10z"/>
<path d="M3166 3414 c-8 -22 -7 -34 3 -34 5 0 9 11 9 25 0 29 -3 31 -12 9z"/>
<path d="M3220 3389 c-21 -7 -19 -8 11 -5 20 3 43 -1 50 -7 11 -10 11 -9 0 6
-15 19 -23 20 -61 6z"/>
<path d="M3292 3332 c-1 -18 1 -23 7 -14 11 19 19 17 41 -10 11 -13 19 -18 20
-12 0 10 -33 45 -55 57 -6 3 -12 -6 -13 -21z"/>
<path d="M3038 3288 c-10 -12 -18 -27 -17 -33 0 -5 3 -4 6 3 8 21 21 13 21
-13 0 -13 -4 -22 -9 -19 -5 3 -6 -3 -2 -12 4 -12 3 -15 -5 -10 -19 11 -14 -18
6 -36 9 -9 32 -37 51 -61 26 -34 37 -42 47 -33 16 15 8 27 -13 19 -13 -5 -15
-2 -10 11 4 10 0 27 -8 39 -8 12 -15 16 -15 9 0 -7 -4 -10 -10 -7 -5 3 -10 18
-10 33 0 21 -3 23 -10 12 -15 -23 -23 -4 -9 22 13 23 21 98 10 98 -3 0 -14
-10 -23 -22z"/>
<path d="M1700 3269 c-47 -17 -179 -52 -245 -64 -32 -6 -120 -196 -166 -358
-16 -57 -49 -266 -49 -310 0 -13 166 0 310 24 212 35 480 116 480 144 0 8 -25
68 -55 134 -30 66 -55 123 -55 127 0 3 -27 68 -61 143 -33 75 -65 146 -70 159
-10 26 -18 26 -89 1z"/>
<path d="M3370 3283 c0 -7 5 -13 11 -13 5 0 7 -5 4 -10 -4 -6 -11 -8 -16 -5
-5 3 -6 -1 -2 -11 5 -15 7 -15 15 0 8 14 13 12 34 -14 14 -16 23 -34 19 -40
-3 -5 0 -8 7 -5 7 3 21 -9 31 -26 10 -18 20 -29 24 -26 6 7 -21 43 -86 117
-22 25 -41 39 -41 33z"/>
<path d="M2980 3255 c-11 -14 -10 -19 8 -37 l21 -21 -4 33 c-5 41 -9 44 -25
25z m20 -25 c0 -5 -2 -10 -4 -10 -3 0 -8 5 -11 10 -3 6 -1 10 4 10 6 0 11 -4
11 -10z"/>
<path d="M3376 3185 c-9 -26 -7 -32 5 -12 6 10 9 21 6 23 -2 3 -7 -2 -11 -11z"/>
<path d="M1088 3158 c-52 -70 -122 -192 -163 -285 -45 -103 -95 -251 -95 -282
0 -22 13 -26 135 -41 50 -6 104 -13 121 -16 l32 -4 7 67 c18 168 60 336 120
476 25 58 45 108 45 111 0 3 -40 6 -89 6 -88 0 -89 0 -113 -32z"/>
<path d="M3120 3161 c0 -6 4 -13 10 -16 6 -3 7 1 4 9 -7 18 -14 21 -14 7z"/>
<path d="M3430 3165 c0 -3 12 -18 28 -32 17 -17 21 -24 10 -20 -20 7 -25 -8
-7 -19 22 -13 30 20 9 38 -11 9 -20 21 -20 27 0 6 -4 11 -10 11 -5 0 -10 -2
-10 -5z"/>
<path d="M2882 3133 c2 -4 0 -8 -4 -8 -4 0 -19 -15 -33 -34 -14 -19 -25 -31
-25 -26 0 5 -13 -4 -30 -20 -16 -15 -27 -32 -24 -37 8 -13 34 11 34 31 0 11 3
13 8 4 6 -9 13 -3 26 18 10 17 29 34 42 39 25 10 31 24 14 35 -6 4 -9 3 -8 -2z"/>
<path d="M3380 3105 c0 -8 7 -15 15 -15 8 0 15 4 15 9 0 5 -7 11 -15 15 -9 3
-15 0 -15 -9z"/>
<path d="M3510 3105 c7 -8 9 -15 4 -15 -5 0 -1 -5 9 -11 9 -5 17 -15 17 -20 0
-6 -4 -7 -10 -4 -5 3 -10 2 -10 -3 0 -5 10 -13 23 -16 21 -7 21 -7 2 -16 -18
-8 -18 -9 -2 -9 25 -1 50 -28 43 -47 -4 -9 -2 -12 5 -8 7 4 9 0 5 -13 -4 -12
-1 -25 8 -32 21 -18 29 2 14 36 -17 37 -107 173 -114 173 -4 0 -1 -7 6 -15z
m110 -186 c0 -6 -4 -7 -10 -4 -5 3 -10 11 -10 16 0 6 5 7 10 4 6 -3 10 -11 10
-16z"/>
<path d="M2906 3101 c-4 -7 -5 -15 -2 -18 9 -9 19 4 14 18 -4 11 -6 11 -12 0z"/>
<path d="M145 2949 c-121 -377 -138 -816 -45 -1204 116 -488 421 -956 820
-1257 217 -163 405 -263 660 -348 120 -41 379 -100 436 -100 12 0 14 39 14
244 0 273 7 248 -75 261 -176 29 -400 115 -580 223 -246 148 -499 414 -638
672 -54 101 -117 256 -145 360 -85 307 -80 686 13 977 l22 72 -126 72 c-69 39
-163 94 -207 120 -45 27 -87 49 -93 49 -5 0 -31 -64 -56 -141z"/>
<path d="M2930 3077 c0 -10 5 -15 10 -12 6 3 10 1 10 -4 0 -6 -4 -11 -10 -11
-5 0 -10 -5 -10 -11 0 -8 4 -9 13 0 14 11 27 5 27 -11 0 -5 -4 -6 -10 -3 -5 3
-10 2 -10 -4 0 -5 5 -13 10 -16 6 -3 10 -2 10 4 0 6 7 8 16 4 15 -6 15 -4 1
13 -9 10 -25 30 -36 44 -17 21 -20 22 -21 7z"/>
<path d="M4310 3057 c-30 -19 -123 -73 -206 -120 l-151 -87 24 -82 c81 -281
92 -578 32 -868 -49 -238 -153 -468 -309 -680 -78 -107 -260 -286 -368 -365
-203 -147 -452 -260 -664 -300 -46 -9 -93 -18 -105 -21 l-23 -4 0 -245 c0
-236 1 -245 19 -245 64 0 316 57 446 102 327 111 602 278 847 516 390 379 609
825 673 1371 27 232 15 467 -39 721 -22 106 -75 280 -97 323 -13 23 -16 22
-79 -16z"/>
<path d="M3140 3052 c0 -12 19 -26 26 -19 2 2 -2 10 -11 17 -9 8 -15 8 -15 2z"/>
<path d="M3200 3050 c0 -5 5 -10 10 -10 6 0 10 5 10 10 0 6 -4 10 -10 10 -5 0
-10 -4 -10 -10z"/>
<path d="M2835 3040 c-3 -5 -1 -10 4 -10 6 0 11 5 11 10 0 6 -2 10 -4 10 -3 0
-8 -4 -11 -10z"/>
<path d="M2864 3039 c-3 -6 -1 -16 5 -22 8 -8 11 -5 11 11 0 24 -5 28 -16 11z"/>
<path d="M2748 2989 c11 -14 9 -16 -13 -16 -37 0 -57 -20 -42 -43 6 -11 13
-17 16 -15 2 3 -2 11 -9 20 -10 12 -8 16 11 24 19 7 27 4 37 -13 9 -13 11 -15
8 -4 -6 20 10 34 17 16 3 -8 6 -8 6 -2 1 6 -9 19 -21 30 -15 12 -18 13 -10 3z"/>
<path d="M3005 2989 c-4 -5 5 -22 19 -36 14 -14 26 -22 26 -17 1 5 7 -2 15
-16 8 -14 14 -19 15 -12 0 7 -11 24 -24 37 -13 13 -23 25 -21 27 2 2 -3 9 -10
15 -9 9 -16 9 -20 2z"/>
<path d="M3181 2986 c5 -26 25 -31 33 -9 4 9 4 14 0 10 -4 -4 -14 -1 -22 5
-12 10 -14 9 -11 -6z"/>
<path d="M2790 2980 c0 -5 5 -10 10 -10 6 0 10 5 10 10 0 6 -4 10 -10 10 -5 0
-10 -4 -10 -10z"/>
<path d="M2967 2966 c-4 -10 -5 -21 -2 -24 9 -9 17 6 13 25 -3 17 -4 17 -11
-1z"/>
<path d="M2830 2950 c0 -5 5 -10 10 -10 6 0 10 5 10 10 0 6 -4 10 -10 10 -5 0
-10 -4 -10 -10z"/>
<path d="M3200 2947 c0 -2 6 -10 14 -16 11 -9 16 -9 22 1 4 7 4 10 -1 6 -4 -4
-14 -3 -22 3 -7 6 -13 9 -13 6z"/>
<path d="M3274 2930 c3 -15 -1 -32 -12 -44 -16 -18 -16 -19 2 -12 15 5 17 4 7
-8 -8 -10 -9 -16 -1 -21 5 -3 11 -3 11 2 6 34 4 71 -3 88 -7 17 -8 16 -4 -5z"/>
<path d="M2646 2921 c-10 -11 -15 -24 -12 -29 9 -15 53 -20 53 -7 0 7 -8 10
-18 8 -9 -3 -20 0 -23 6 -4 6 -1 9 7 5 18 -7 33 14 20 27 -6 6 -16 2 -27 -10z"/>
<path d="M3237 2914 c-4 -4 -4 -10 -1 -15 6 -10 34 0 34 12 0 10 -24 12 -33 3z"/>
<path d="M3547 2898 c-9 -31 -2 -33 11 -3 6 14 8 25 3 25 -5 0 -11 -10 -14
-22z"/>
<path d="M3515 2900 c3 -5 8 -10 11 -10 2 0 4 5 4 10 0 6 -5 10 -11 10 -5 0
-7 -4 -4 -10z"/>
<path d="M2577 2863 c-28 -19 -34 -29 -27 -38 12 -14 53 -8 45 6 -3 4 -13 6
-23 3 -13 -4 -13 -3 2 7 15 9 24 9 38 0 12 -7 18 -8 18 -1 0 6 -7 13 -15 16
-12 5 -13 10 -4 20 16 19 10 17 -34 -13z"/>
<path d="M3086 2881 c-4 -5 -3 -16 0 -24 3 -8 1 -18 -5 -22 -6 -3 -11 -11 -11
-17 0 -6 8 -2 18 10 15 17 21 19 32 9 9 -9 9 -7 -1 10 -7 12 -17 19 -23 16 -5
-4 -7 1 -3 10 7 18 2 23 -7 8z"/>
<path d="M3570 2865 c-9 -11 -17 -12 -31 -5 -17 10 -18 8 -9 -14 8 -23 -2 -47
-13 -29 -2 5 -2 2 -1 -4 2 -7 -5 -13 -16 -13 -10 0 -22 -4 -25 -10 -3 -5 0 -7
8 -4 8 3 18 1 22 -5 7 -12 55 39 55 59 0 6 5 8 10 5 6 -3 13 1 16 10 9 22 -1
29 -16 10z"/>
<path d="M2535 2810 c10 -11 20 -20 23 -20 3 0 -3 9 -13 20 -10 11 -20 20 -23
20 -3 0 3 -9 13 -20z"/>
<path d="M3281 2820 c0 -8 4 -22 9 -30 12 -18 12 -2 0 25 -6 13 -9 15 -9 5z"/>
<path d="M3319 2823 c-1 -5 -1 -12 0 -16 1 -4 -3 -17 -9 -28 -8 -15 -7 -21 4
-25 9 -3 12 -13 9 -22 -5 -13 -3 -14 6 -6 10 9 10 17 2 32 -14 26 -14 33 0 30
6 -2 12 7 14 20 1 20 -23 34 -26 15z"/>
<path d="M3132 2807 c10 -11 15 -27 12 -45 -3 -18 -1 -22 4 -14 7 11 10 10 16
-3 10 -27 7 -70 -6 -83 -9 -9 -9 -12 0 -12 7 0 12 6 12 13 0 8 3 7 10 -3 5 -8
12 -11 16 -7 4 3 1 13 -6 22 -7 8 -10 23 -7 34 6 22 -33 103 -53 109 -11 4
-10 1 2 -11z"/>
<path d="M2505 2800 c3 -5 11 -10 16 -10 6 0 7 5 4 10 -3 6 -11 10 -16 10 -6
0 -7 -4 -4 -10z"/>
<path d="M2453 2778 c-18 -11 -33 -24 -33 -29 0 -5 -8 -9 -17 -9 -23 -1 -53
-24 -53 -41 0 -12 -2 -12 -9 0 -7 11 -10 11 -17 0 -5 -8 -9 -18 -9 -23 0 -5
-6 -11 -14 -14 -8 -3 -11 0 -7 7 4 6 3 11 -3 11 -5 0 -13 -5 -16 -10 -10 -16
23 -24 40 -10 10 9 15 9 15 1 0 -6 4 -11 10 -11 5 0 7 6 5 13 -7 18 37 63 71
71 16 4 26 4 22 0 -5 -4 1 -14 13 -22 11 -8 23 -12 26 -9 7 8 -7 28 -16 23 -4
-3 -12 4 -19 15 -13 20 -7 24 27 20 7 -2 10 2 7 7 -3 6 0 12 6 15 7 2 11 6 8
9 -3 3 -20 -4 -37 -14z"/>
<path d="M3593 2683 c-51 -60 -113 -131 -139 -160 l-46 -52 16 -76 c30 -145
39 -297 27 -434 -7 -69 -19 -154 -27 -189 -7 -35 -14 -65 -14 -68 0 -13 168
120 294 232 52 47 55 53 67 119 28 169 11 429 -42 627 -34 124 -31 124 -136 1z"/>
<path d="M3393 2765 c0 -8 4 -12 9 -9 4 3 8 9 8 15 0 5 -4 9 -8 9 -5 0 -9 -7
-9 -15z"/>
<path d="M3457 2761 c2 -2 -2 -10 -8 -18 -9 -10 -8 -13 0 -13 7 0 9 -4 6 -10
-3 -5 -2 -10 4 -10 12 0 41 40 41 55 0 5 -5 2 -11 -8 -9 -15 -13 -16 -22 -5
-7 7 -11 11 -10 9z"/>
<path d="M3353 2741 c0 -11 5 -17 11 -14 5 4 7 -1 3 -11 -4 -10 -3 -15 3 -11
14 9 12 31 -4 45 -12 9 -15 8 -13 -9z"/>
<path d="M2475 2740 c3 -5 8 -10 11 -10 2 0 4 5 4 10 0 6 -5 10 -11 10 -5 0
-7 -4 -4 -10z"/>
<path d="M3151 2714 c0 -11 3 -14 6 -6 3 7 2 16 -1 19 -3 4 -6 -2 -5 -13z"/>
<path d="M3426 2703 c4 -14 0 -19 -15 -19 -12 0 -21 4 -21 8 0 5 -8 4 -19 -1
-10 -6 -22 -7 -26 -3 -4 4 0 -10 9 -32 9 -21 16 -40 16 -42 0 -2 9 5 20 16 12
12 18 25 15 30 -4 6 0 10 8 10 25 0 39 25 23 39 -12 10 -14 9 -10 -6z m-36
-42 c0 -11 -3 -22 -7 -24 -5 -3 -8 6 -8 19 0 13 3 24 8 24 4 0 7 -9 7 -19z"/>
<path d="M2380 2686 c-6 -9 -10 -21 -8 -28 3 -8 9 -4 17 10 15 28 9 39 -9 18z"/>
<path d="M2220 2644 c-14 -9 -17 -13 -6 -10 13 5 17 2 12 -9 -5 -13 5 -20 27
-16 4 0 7 -14 7 -33 0 -19 4 -37 8 -40 7 -4 8 15 3 73 -1 7 -7 11 -16 7 -8 -3
-15 -1 -15 4 0 6 5 10 10 10 6 0 10 7 10 15 0 19 -8 18 -40 -1z"/>
<path d="M3220 2604 c5 -19 15 -43 23 -52 8 -9 17 -24 20 -32 5 -13 6 -13 6 0
1 9 -6 25 -14 36 -8 12 -11 25 -7 29 4 5 1 5 -6 1 -8 -5 -13 -3 -11 5 3 27 -1
49 -10 49 -5 0 -5 -15 -1 -36z"/>
<path d="M2230 2563 c0 -21 29 -66 30 -46 0 6 -5 15 -11 18 -6 4 -8 13 -5 21
3 7 1 16 -4 19 -6 4 -10 -2 -10 -12z"/>
<path d="M3215 2540 c3 -5 8 -10 11 -10 2 0 4 5 4 10 0 6 -5 10 -11 10 -5 0
-7 -4 -4 -10z"/>
<path d="M2331 2514 c0 -11 3 -14 6 -6 3 7 2 16 -1 19 -3 4 -6 -2 -5 -13z"/>
<path d="M2260 2493 c1 -5 9 -25 19 -46 14 -31 19 -35 25 -22 3 10 4 25 1 34
-5 17 -45 47 -45 34z m40 -44 c0 -6 -4 -7 -10 -4 -5 3 -10 11 -10 16 0 6 5 7
10 4 6 -3 10 -11 10 -16z"/>
<path d="M3220 2488 c0 -6 -8 -21 -17 -32 -10 -12 -3 -8 15 8 37 34 38 36 17
36 -8 0 -15 -5 -15 -12z"/>
<path d="M3150 2480 c0 -5 8 -7 18 -3 13 5 14 3 5 -7 -6 -7 -9 -19 -6 -27 4
-11 9 -8 18 9 6 13 10 26 8 31 -6 11 -43 9 -43 -3z"/>
<path d="M2318 2431 c-13 -33 -13 -41 -1 -62 13 -23 14 -23 8 11 -4 20 -3 30
2 23 5 -7 8 4 8 28 0 21 0 39 -1 39 0 0 -8 -17 -16 -39z"/>
<path d="M3100 2465 c0 -4 5 -15 11 -27 9 -17 8 -19 -9 -14 -12 4 -24 2 -28
-6 -4 -6 -2 -14 4 -16 7 -2 12 -8 12 -13 0 -6 -5 -7 -12 -3 -7 5 -8 3 -3 -6 4
-7 2 -16 -6 -21 -12 -7 -11 -9 1 -9 13 0 13 -1 0 -10 -19 -12 -33 -13 -26 -2
3 5 0 9 -7 9 -7 0 -23 3 -37 7 -19 6 -21 5 -10 -3 8 -6 12 -11 8 -11 -4 0 0
-9 9 -20 16 -18 18 -18 45 -2 44 26 111 99 103 112 -4 6 -13 9 -21 6 -8 -3
-14 1 -14 9 0 7 -4 17 -10 20 -5 3 -10 3 -10 0z m20 -75 c-34 -43 -52 -54 -27
-17 14 21 13 25 -1 35 -15 11 -15 12 3 7 11 -2 27 0 35 5 25 16 23 12 -10 -30z"/>
<path d="M3241 2325 c-173 -152 -405 -306 -616 -412 -49 -25 -92 -47 -94 -49
-2 -2 49 -125 114 -273 l117 -270 37 15 c61 25 260 133 362 196 66 40 100 67
108 86 38 94 71 308 71 458 0 108 -16 267 -29 291 -4 9 -27 -5 -70 -42z"/>
<path d="M2330 2330 c1 -18 29 -70 30 -54 0 7 -7 25 -15 40 -8 16 -15 22 -15
14z"/>
<path d="M2944 2284 c4 -32 2 -37 -25 -46 -16 -5 -29 -14 -29 -19 0 -5 17 1
38 12 48 28 62 39 62 53 0 6 -5 3 -11 -6 -14 -25 -33 -23 -19 1 13 26 13 28
-5 35 -12 4 -14 -2 -11 -30z"/>
<path d="M2415 2290 c3 -5 8 -10 11 -10 2 0 4 5 4 10 0 6 -5 10 -11 10 -5 0
-7 -4 -4 -10z"/>
<path d="M2390 2268 c0 -9 5 -20 10 -23 13 -8 13 5 0 25 -8 13 -10 13 -10 -2z"/>
<path d="M2475 2270 c3 -5 8 -10 11 -10 2 0 4 5 4 10 0 6 -5 10 -11 10 -5 0
-7 -4 -4 -10z"/>
<path d="M2368 2264 c-4 -4 -2 -16 4 -28 7 -11 11 -24 10 -28 -1 -4 5 -5 14
-1 13 5 13 8 1 22 -8 9 -16 22 -18 29 -3 7 -8 10 -11 6z"/>
<path d="M2878 2252 c-28 -16 -37 -32 -19 -32 5 0 11 7 15 15 3 8 12 15 20 15
8 0 18 5 21 10 9 15 -6 12 -37 -8z"/>
<path d="M2470 2220 c0 -5 5 -10 10 -10 6 0 10 5 10 10 0 6 -4 10 -10 10 -5 0
-10 -4 -10 -10z"/>
<path d="M2785 2200 c13 -6 15 -9 5 -9 -12 -1 -13 -3 -1 -10 17 -11 -4 -25
-21 -15 -10 6 -10 4 0 -8 10 -13 10 -17 -3 -22 -8 -3 -21 -4 -27 -2 -7 1 -10
1 -5 -1 9 -6 -1 -23 -14 -23 -5 0 -9 6 -9 14 0 9 -9 13 -25 11 -37 -4 -43 -15
-9 -16 l29 -1 -32 -9 c-18 -5 -33 -14 -33 -20 0 -6 7 -6 19 1 11 5 36 12 57
15 21 2 40 8 43 13 3 5 16 14 28 21 13 6 22 15 22 19 -3 19 2 32 12 32 6 0 9
-7 5 -15 -8 -21 -1 -19 30 10 15 14 22 25 16 25 -6 0 -16 -8 -21 -17 -8 -14
-10 -15 -11 -3 0 10 -12 15 -38 17 -28 1 -32 -1 -17 -7z"/>
<path d="M2630 2150 c0 -11 2 -20 5 -20 2 0 9 9 15 20 9 16 8 20 -5 20 -8 0
-15 -9 -15 -20z"/>
<path d="M2464 2125 c-17 -13 -17 -14 -2 -15 9 0 20 5 23 11 11 17 0 20 -21 4z"/>
<path d="M2430 2101 c0 -6 4 -13 10 -16 6 -3 7 1 4 9 -7 18 -14 21 -14 7z"/>
<path d="M2470 2093 c0 -5 5 -15 10 -23 8 -12 10 -11 10 8 0 12 -4 22 -10 22
-5 0 -10 -3 -10 -7z"/>
<path d="M2610 2063 c0 -5 -11 -13 -25 -20 -14 -6 -23 -7 -20 -3 3 5 0 12 -6
16 -7 4 -9 3 -6 -3 3 -5 -10 -15 -29 -22 -19 -7 -32 -16 -29 -21 3 -5 1 -11
-4 -14 -5 -3 -12 2 -15 11 -4 9 -1 20 5 24 8 5 5 11 -10 18 -25 14 -25 11 -7
-34 17 -39 35 -45 43 -15 3 10 14 22 25 26 29 9 35 -4 7 -15 -13 -5 -19 -10
-13 -10 18 -1 94 39 94 50 0 6 5 7 10 4 6 -3 10 -1 10 4 0 6 -7 11 -15 11 -8
0 -15 -3 -15 -7z"/>
<path d="M2360 1794 c-164 -71 -477 -154 -687 -184 -79 -11 -145 -20 -148 -20
-26 0 129 -175 227 -258 131 -110 333 -232 385 -232 25 0 195 50 303 90 203
74 221 82 216 93 -2 7 -41 95 -86 197 -45 102 -96 220 -113 263 -17 42 -34 77
-37 76 -3 0 -30 -11 -60 -25z"/>
<path d="M3620 1719 c-47 -38 -124 -97 -172 -131 l-88 -62 -64 -133 c-73 -149
-155 -275 -246 -375 -34 -38 -59 -68 -56 -68 15 0 177 107 238 157 162 132
324 336 402 504 35 76 78 179 73 179 -1 -1 -40 -32 -87 -71z"/>
<path d="M960 1583 c0 -16 106 -180 160 -248 72 -91 231 -238 318 -295 69 -45
78 -49 121 -44 127 15 273 35 333 45 l67 12 -65 38 c-174 102 -376 290 -479
447 l-28 42 -176 0 c-97 0 -193 3 -213 6 -23 4 -38 3 -38 -3z"/>
<path d="M3105 1368 c-39 -22 -119 -65 -180 -95 -60 -31 -112 -57 -113 -58 -6
-5 79 -195 87 -195 11 0 75 70 133 147 57 74 153 231 146 238 -2 2 -35 -14
-73 -37z"/>
<path d="M2630 1141 c-36 -15 -117 -45 -180 -66 -63 -20 -119 -41 -123 -45
-13 -11 186 -49 306 -59 119 -9 161 -5 153 14 -22 60 -81 185 -85 185 -3 -1
-35 -13 -71 -29z"/>
<path d="M1985 950 c-71 -15 -166 -34 -210 -42 l-80 -14 90 -33 c285 -104 651
-114 936 -24 l54 17 -120 7 c-157 9 -278 31 -406 73 -57 19 -111 36 -119 39
-8 3 -73 -8 -145 -23z"/>
</g>
</svg>
